<svg version="1.1" xmlns="http://www.w3.org/2000/svg" xmlns:xlink="http://www.w3.org/1999/xlink" width="1592.40869140625" height="752"><defs/><g><g transform="translate(-126,-286) scale(1,1)"><rect fill="#C0C0C0" stroke="none" x="143" y="359" width="314.34765625" height="207" opacity="0.2"/></g><g transform="translate(-126,-286) scale(1,1)"><rect fill="#ffffff" stroke="none" x="136" y="352" width="314.34765625" height="207"/></g><g transform="translate(-126,-286) scale(1,1)"><path fill="none" stroke="#000000" d="M 136 352 L 450.34765625 352 L 450.34765625 559 L 136 559 L 136 352 Z Z" stroke-miterlimit="10"/></g><g transform="translate(-126,-286) scale(1,1)"><path fill="none" stroke="#000000" d="M 136 377 L 450.34765625 377" stroke-miterlimit="10"/></g><g transform="translate(-126,-286) scale(1,1)"><path fill="none" stroke="#000000" d="M 136 387 L 450.34765625 387" stroke-miterlimit="10"/></g><g transform="translate(-126,-286) scale(1,1)"><g><path fill="none" stroke="none"/><text fill="#000000" stroke="none" font-family="Arial" font-size="13px" font-style="normal" font-weight="bold" text-decoration="none" x="277.279296875" y="371.5">Carte</text></g></g><g transform="translate(-126,-286) scale(1,1)"><g><path fill="none" stroke="none"/><text fill="#000000" stroke="none" font-family="Arial" font-size="13px" font-style="normal" font-weight="normal" text-decoration="none" x="141" y="404.5">+Carte(): Carte</text></g></g><g transform="translate(-126,-286) scale(1,1)"><g><path fill="none" stroke="none"/><text fill="#000000" stroke="none" font-family="Arial" font-size="13px" font-style="normal" font-weight="normal" text-decoration="none" x="141" y="419.5">+getElement(Position pos): Element</text></g></g><g transform="translate(-126,-286) scale(1,1)"><g><path fill="none" stroke="none"/><text fill="#000000" stroke="none" font-family="Arial" font-size="13px" font-style="normal" font-weight="normal" text-decoration="none" x="141" y="434.5">+trouvePositionVide(): Position</text></g></g><g transform="translate(-126,-286) scale(1,1)"><g><path fill="none" stroke="none"/><text fill="#000000" stroke="none" font-family="Arial" font-size="13px" font-style="normal" font-weight="normal" text-decoration="none" x="141" y="449.5">+trouvePositionVide(Position pos): Position</text></g></g><g transform="translate(-126,-286) scale(1,1)"><g><path fill="none" stroke="none"/><text fill="#000000" stroke="none" font-family="Arial" font-size="13px" font-style="normal" font-weight="normal" text-decoration="none" x="141" y="464.5">+trouveHeros(): Heros</text></g></g><g transform="translate(-126,-286) scale(1,1)"><g><path fill="none" stroke="none"/><text fill="#000000" stroke="none" font-family="Arial" font-size="13px" font-style="normal" font-weight="normal" text-decoration="none" x="141" y="479.5">+trouveHeros(Position pos): Heros</text></g></g><g transform="translate(-126,-286) scale(1,1)"><g><path fill="none" stroke="none"/><text fill="#000000" stroke="none" font-family="Arial" font-size="13px" font-style="normal" font-weight="normal" text-decoration="none" x="141" y="494.5">+deplaceSoldat(Position pos, Soldat soldat): boolean</text></g></g><g transform="translate(-126,-286) scale(1,1)"><g><path fill="none" stroke="none"/><text fill="#000000" stroke="none" font-family="Arial" font-size="13px" font-style="normal" font-weight="normal" text-decoration="none" x="141" y="509.5">+mort(Soldat perso): void</text></g></g><g transform="translate(-126,-286) scale(1,1)"><g><path fill="none" stroke="none"/><text fill="#000000" stroke="none" font-family="Arial" font-size="13px" font-style="normal" font-weight="normal" text-decoration="none" x="141" y="524.5">+ajouterHeros(Position pos, Position pos2): void</text></g></g><g transform="translate(-126,-286) scale(1,1)"><g><path fill="none" stroke="none"/><text fill="#000000" stroke="none" font-family="Arial" font-size="13px" font-style="normal" font-weight="normal" text-decoration="none" x="141" y="539.5">+jouerSoldats(PanneaJeu pj): void</text></g></g><g transform="translate(-126,-286) scale(1,1)"><g><path fill="none" stroke="none"/><text fill="#000000" stroke="none" font-family="Arial" font-size="13px" font-style="normal" font-weight="normal" text-decoration="none" x="141" y="554.5">+toutDessiner(Graphics g): void</text></g></g><g transform="translate(-126,-286) scale(1,1)"><rect fill="#C0C0C0" stroke="none" x="599" y="367" width="213.8642578125" height="145" opacity="0.2"/></g><g transform="translate(-126,-286) scale(1,1)"><rect fill="#ffffff" stroke="none" x="592" y="360" width="213.8642578125" height="145"/></g><g transform="translate(-126,-286) scale(1,1)"><path fill="none" stroke="#000000" d="M 592 360 L 805.8642578125 360 L 805.8642578125 505 L 592 505 L 592 360 Z Z" stroke-miterlimit="10"/></g><g transform="translate(-126,-286) scale(1,1)"><path fill="none" stroke="#000000" d="M 592 385 L 805.8642578125 385" stroke-miterlimit="10"/></g><g transform="translate(-126,-286) scale(1,1)"><path fill="none" stroke="#000000" d="M 592 408 L 805.8642578125 408" stroke-miterlimit="10"/></g><g transform="translate(-126,-286) scale(1,1)"><g><path fill="none" stroke="none"/><text fill="#000000" stroke="none" font-family="Arial" font-size="13px" font-style="italic" font-weight="bold" text-decoration="none" x="675.087158203125" y="379.5">Element</text></g></g><g transform="translate(-126,-286) scale(1,1)"><g><path fill="none" stroke="none"/><text fill="#000000" stroke="none" font-family="Arial" font-size="13px" font-style="normal" font-weight="normal" text-decoration="none" x="597" y="402.5">-pos: Position</text></g></g><g transform="translate(-126,-286) scale(1,1)"><g><path fill="none" stroke="none"/><text fill="#000000" stroke="none" font-family="Arial" font-size="13px" font-style="normal" font-weight="normal" text-decoration="none" x="597" y="425.5">+Element(Position pos): Element</text></g></g><g transform="translate(-126,-286) scale(1,1)"><g><path fill="none" stroke="none"/><text fill="#000000" stroke="none" font-family="Arial" font-size="13px" font-style="normal" font-weight="normal" text-decoration="none" x="597" y="440.5">+Element(int x, int y): Element</text></g></g><g transform="translate(-126,-286) scale(1,1)"><g><path fill="none" stroke="none"/><text fill="#000000" stroke="none" font-family="Arial" font-size="13px" font-style="normal" font-weight="normal" text-decoration="none" x="597" y="455.5">+getPosition(Position pos): Position</text></g></g><g transform="translate(-126,-286) scale(1,1)"><g><path fill="none" stroke="none"/><text fill="#000000" stroke="none" font-family="Arial" font-size="13px" font-style="normal" font-weight="normal" text-decoration="none" x="597" y="470.5">+getPosition(int x, int y): Position</text></g></g><g transform="translate(-126,-286) scale(1,1)"><g><path fill="none" stroke="none"/><text fill="#000000" stroke="none" font-family="Arial" font-size="13px" font-style="normal" font-weight="normal" text-decoration="none" x="597" y="485.5">+setPosition(Position pos): void</text></g></g><g transform="translate(-126,-286) scale(1,1)"><g><path fill="none" stroke="none"/><text fill="#000000" stroke="none" font-family="Arial" font-size="13px" font-style="normal" font-weight="normal" text-decoration="none" x="597" y="500.5">+setPosition(int x, int y): void</text></g></g><g transform="translate(-126,-286) scale(1,1)"><path fill="none" stroke="#000000" d="M 591 438 L 451 446" stroke-miterlimit="10"/></g><g transform="translate(-126,-286) scale(1,1)"><path fill="#000000" stroke="none" d="M 460.90597115267434 441.21755966870643 L 451 446 L 461.3862753651721 449.6228833874166 L 472.9641693573275 444.7449046081527"/></g><g transform="translate(-126,-286) scale(1,1)"><path fill="none" stroke="#000000" d="M 460.90597115267434 441.21755966870643 L 451 446 L 461.3862753651721 449.6228833874166 L 472.9641693573275 444.7449046081527 L 460.90597115267434 441.21755966870643" stroke-miterlimit="10"/></g><g transform="translate(-126,-286) scale(1,1)"><g><path fill="none" stroke="none"/><text fill="#000000" stroke="none" font-family="Arial" font-size="13px" font-style="normal" font-weight="normal" text-decoration="none" x="498" y="463">+est sur</text></g></g><g transform="translate(-126,-286) scale(1,1)"><g><path fill="none" stroke="none"/><text fill="#000000" stroke="none" font-family="Arial" font-size="13px" font-style="normal" font-weight="normal" text-decoration="none" x="559" y="433">0..*</text></g></g><g transform="translate(-126,-286) scale(1,1)"><g><path fill="none" stroke="none"/><text fill="#000000" stroke="none" font-family="Arial" font-size="13px" font-style="normal" font-weight="normal" text-decoration="none" x="468" y="439">1</text></g></g><g transform="translate(-126,-286) scale(1,1)"><rect fill="#C0C0C0" stroke="none" x="519" y="591" width="321.5078125" height="104" opacity="0.2"/></g><g transform="translate(-126,-286) scale(1,1)"><rect fill="#ffffff" stroke="none" x="512" y="584" width="321.5078125" height="104"/></g><g transform="translate(-126,-286) scale(1,1)"><path fill="none" stroke="#000000" d="M 512 584 L 833.5078125 584 L 833.5078125 688 L 512 688 L 512 584 Z Z" stroke-miterlimit="10"/></g><g transform="translate(-126,-286) scale(1,1)"><path fill="none" stroke="#000000" d="M 512 609 L 833.5078125 609" stroke-miterlimit="10"/></g><g transform="translate(-126,-286) scale(1,1)"><path fill="none" stroke="#000000" d="M 512 647 L 833.5078125 647" stroke-miterlimit="10"/></g><g transform="translate(-126,-286) scale(1,1)"><g><path fill="none" stroke="none"/><text fill="#000000" stroke="none" font-family="Arial" font-size="13px" font-style="normal" font-weight="bold" text-decoration="none" x="647.10302734375" y="603.5">Obstacle</text></g></g><g transform="translate(-126,-286) scale(1,1)"><g><path fill="none" stroke="none"/><text fill="#000000" stroke="none" font-family="Arial" font-size="13px" font-style="normal" font-weight="normal" text-decoration="none" x="517" y="626.5">+TypeObstacle: enum</text></g></g><g transform="translate(-126,-286) scale(1,1)"><g><path fill="none" stroke="none"/><text fill="#000000" stroke="none" font-family="Arial" font-size="13px" font-style="normal" font-weight="normal" text-decoration="none" x="517" y="641.5">-TYPE: TypeObstacle</text></g></g><g transform="translate(-126,-286) scale(1,1)"><g><path fill="none" stroke="none"/><text fill="#000000" stroke="none" font-family="Arial" font-size="13px" font-style="normal" font-weight="normal" text-decoration="none" x="517" y="664.5">+Obstacle(TypeObstacle type, Position pos): Obstacle</text></g></g><g transform="translate(-126,-286) scale(1,1)"><g><path fill="none" stroke="none"/><text fill="#000000" stroke="none" font-family="Arial" font-size="13px" font-style="normal" font-weight="normal" text-decoration="none" x="517" y="679.5">+toString(): String</text></g></g><g transform="translate(-126,-286) scale(1,1)"><rect fill="#C0C0C0" stroke="none" x="903" y="591" width="213.85791015625" height="175" opacity="0.2"/></g><g transform="translate(-126,-286) scale(1,1)"><rect fill="#ffffff" stroke="none" x="896" y="584" width="213.85791015625" height="175"/></g><g transform="translate(-126,-286) scale(1,1)"><path fill="none" stroke="#000000" d="M 896 584 L 1109.85791015625 584 L 1109.85791015625 759 L 896 759 L 896 584 Z Z" stroke-miterlimit="10"/></g><g transform="translate(-126,-286) scale(1,1)"><path fill="none" stroke="#000000" d="M 896 609 L 1109.85791015625 609" stroke-miterlimit="10"/></g><g transform="translate(-126,-286) scale(1,1)"><path fill="none" stroke="#000000" d="M 896 647 L 1109.85791015625 647" stroke-miterlimit="10"/></g><g transform="translate(-126,-286) scale(1,1)"><g><path fill="none" stroke="none"/><text fill="#000000" stroke="none" font-family="Arial" font-size="13px" font-style="italic" font-weight="bold" text-decoration="none" x="984.49853515625" y="603.5">Soldat</text></g></g><g transform="translate(-126,-286) scale(1,1)"><g><path fill="none" stroke="none"/><text fill="#000000" stroke="none" font-family="Arial" font-size="13px" font-style="normal" font-weight="normal" text-decoration="none" x="901" y="626.5">-numS: int</text></g></g><g transform="translate(-126,-286) scale(1,1)"><g><path fill="none" stroke="none"/><text fill="#000000" stroke="none" font-family="Arial" font-size="13px" font-style="normal" font-weight="normal" text-decoration="none" x="901" y="641.5">#nbSol: int</text><path fill="none" stroke="#000000" d="M 901 641.5 L 962.4326171875 641.5" stroke-miterlimit="10"/></g></g><g transform="translate(-126,-286) scale(1,1)"><g><path fill="none" stroke="none"/><text fill="#000000" stroke="none" font-family="Arial" font-size="13px" font-style="normal" font-weight="normal" text-decoration="none" x="901" y="664.5">+getPoints(): int</text></g></g><g transform="translate(-126,-286) scale(1,1)"><g><path fill="none" stroke="none"/><text fill="#000000" stroke="none" font-family="Arial" font-size="13px" font-style="normal" font-weight="normal" text-decoration="none" x="901" y="679.5">+getTour(): int</text></g></g><g transform="translate(-126,-286) scale(1,1)"><g><path fill="none" stroke="none"/><text fill="#000000" stroke="none" font-family="Arial" font-size="13px" font-style="normal" font-weight="normal" text-decoration="none" x="901" y="694.5">+getPortee(): int</text></g></g><g transform="translate(-126,-286) scale(1,1)"><g><path fill="none" stroke="none"/><text fill="#000000" stroke="none" font-family="Arial" font-size="13px" font-style="normal" font-weight="normal" text-decoration="none" x="901" y="709.5">+joueTour(int tour): void</text></g></g><g transform="translate(-126,-286) scale(1,1)"><g><path fill="none" stroke="none"/><text fill="#000000" stroke="none" font-family="Arial" font-size="13px" font-style="normal" font-weight="normal" text-decoration="none" x="901" y="724.5">+combat(Soldat soldat): void</text></g></g><g transform="translate(-126,-286) scale(1,1)"><g><path fill="none" stroke="none"/><text fill="#000000" stroke="none" font-family="Arial" font-size="13px" font-style="normal" font-weight="normal" text-decoration="none" x="901" y="739.5">+seDeplace(Position newPos): void</text></g></g><g transform="translate(-126,-286) scale(1,1)"><rect fill="#C0C0C0" stroke="none" x="559" y="935" width="429.86865234375" height="100" opacity="0.2"/></g><g transform="translate(-126,-286) scale(1,1)"><rect fill="#ffffff" stroke="none" x="552" y="928" width="429.86865234375" height="100"/></g><g transform="translate(-126,-286) scale(1,1)"><path fill="none" stroke="#000000" d="M 552 928 L 981.86865234375 928 L 981.86865234375 1028 L 552 1028 L 552 928 Z Z" stroke-miterlimit="10"/></g><g transform="translate(-126,-286) scale(1,1)"><path fill="none" stroke="#000000" d="M 552 953 L 981.86865234375 953" stroke-miterlimit="10"/></g><g transform="translate(-126,-286) scale(1,1)"><path fill="none" stroke="#000000" d="M 552 1006 L 981.86865234375 1006" stroke-miterlimit="10"/></g><g transform="translate(-126,-286) scale(1,1)"><g><path fill="none" stroke="none"/><text fill="#000000" stroke="none" font-family="Arial" font-size="13px" font-style="normal" font-weight="bold" text-decoration="none" x="749.595703125" y="947.5">Heros</text></g></g><g transform="translate(-126,-286) scale(1,1)"><g><path fill="none" stroke="none"/><text fill="#000000" stroke="none" font-family="Arial" font-size="13px" font-style="normal" font-weight="normal" text-decoration="none" x="557" y="970.5">-type: TypesH</text></g></g><g transform="translate(-126,-286) scale(1,1)"><g><path fill="none" stroke="none"/><text fill="#000000" stroke="none" font-family="Arial" font-size="13px" font-style="normal" font-weight="normal" text-decoration="none" x="557" y="985.5">-numH: int</text></g></g><g transform="translate(-126,-286) scale(1,1)"><g><path fill="none" stroke="none"/><text fill="#000000" stroke="none" font-family="Arial" font-size="13px" font-style="normal" font-weight="normal" text-decoration="none" x="557" y="1000.5">-nbH: int</text><path fill="none" stroke="#000000" d="M 557 1000.5 L 606.130859375 1000.5" stroke-miterlimit="10"/></g></g><g transform="translate(-126,-286) scale(1,1)"><g><path fill="none" stroke="none"/><text fill="#000000" stroke="none" font-family="Arial" font-size="13px" font-style="normal" font-weight="normal" text-decoration="none" x="557" y="1023.5">+Heros(carte: Carte, type: TypeH, nom: String, pos: Position): Heros</text></g></g><g transform="translate(-126,-286) scale(1,1)"><path fill="none" stroke="#000000" d="M 805 927 L 934 760" stroke-miterlimit="10"/></g><g transform="translate(-126,-286) scale(1,1)"><path fill="#FFFFFF" stroke="none" d="M 928.2375910237453 781.2319250844189 L 934 760 L 914.9121233320826 770.9385997417575"/></g><g transform="translate(-126,-286) scale(1,1)"><path fill="none" stroke="#000000" d="M 928.2375910237453 781.2319250844189 L 934 760 L 914.9121233320826 770.9385997417575 L 928.2375910237453 781.2319250844189" stroke-miterlimit="10"/></g><g transform="translate(-126,-286) scale(1,1)"><rect fill="#C0C0C0" stroke="none" x="1287" y="927" width="428.40869140625" height="100" opacity="0.2"/></g><g transform="translate(-126,-286) scale(1,1)"><rect fill="#ffffff" stroke="none" x="1280" y="920" width="428.40869140625" height="100"/></g><g transform="translate(-126,-286) scale(1,1)"><path fill="none" stroke="#000000" d="M 1280 920 L 1708.40869140625 920 L 1708.40869140625 1020 L 1280 1020 L 1280 920 Z Z" stroke-miterlimit="10"/></g><g transform="translate(-126,-286) scale(1,1)"><path fill="none" stroke="#000000" d="M 1280 945 L 1708.40869140625 945" stroke-miterlimit="10"/></g><g transform="translate(-126,-286) scale(1,1)"><path fill="none" stroke="#000000" d="M 1280 998 L 1708.40869140625 998" stroke-miterlimit="10"/></g><g transform="translate(-126,-286) scale(1,1)"><g><path fill="none" stroke="none"/><text fill="#000000" stroke="none" font-family="Arial" font-size="13px" font-style="normal" font-weight="bold" text-decoration="none" x="1470.724365234375" y="939.5">Monstre</text></g></g><g transform="translate(-126,-286) scale(1,1)"><g><path fill="none" stroke="none"/><text fill="#000000" stroke="none" font-family="Arial" font-size="13px" font-style="normal" font-weight="normal" text-decoration="none" x="1285" y="962.5">-type: TypesM</text></g></g><g transform="translate(-126,-286) scale(1,1)"><g><path fill="none" stroke="none"/><text fill="#000000" stroke="none" font-family="Arial" font-size="13px" font-style="normal" font-weight="normal" text-decoration="none" x="1285" y="977.5">+numM: int</text></g></g><g transform="translate(-126,-286) scale(1,1)"><g><path fill="none" stroke="none"/><text fill="#000000" stroke="none" font-family="Arial" font-size="13px" font-style="normal" font-weight="normal" text-decoration="none" x="1285" y="992.5">-nbM: int</text><path fill="none" stroke="#000000" d="M 1285 992.5 L 1335.57177734375 992.5" stroke-miterlimit="10"/></g></g><g transform="translate(-126,-286) scale(1,1)"><g><path fill="none" stroke="none"/><text fill="#000000" stroke="none" font-family="Arial" font-size="13px" font-style="normal" font-weight="normal" text-decoration="none" x="1285" y="1015.5">+Monstre(carte: Carte, type: TypeM, nom: String, pos: Position): Monstre</text></g></g><g transform="translate(-126,-286) scale(1,1)"><path fill="none" stroke="#000000" d="M 1410 919 L 1111 737" stroke-miterlimit="10"/></g><g transform="translate(-126,-286) scale(1,1)"><path fill="#FFFFFF" stroke="none" d="M 1132.7393361794113 740.3765755549873 L 1111 737 L 1123.9844325588356 754.7596315030761"/></g><g transform="translate(-126,-286) scale(1,1)"><path fill="none" stroke="#000000" d="M 1132.7393361794113 740.3765755549873 L 1111 737 L 1123.9844325588356 754.7596315030761 L 1132.7393361794113 740.3765755549873" stroke-miterlimit="10"/></g><g transform="translate(-126,-286) scale(1,1)"><path fill="none" stroke="#000000" d="M 679 583 L 689 506" stroke-miterlimit="10"/></g><g transform="translate(-126,-286) scale(1,1)"><path fill="#FFFFFF" stroke="none" d="M 694.7312494556052 527.2403573340381 L 689 506 L 678.0334046490063 525.0718060604538"/></g><g transform="translate(-126,-286) scale(1,1)"><path fill="none" stroke="#000000" d="M 694.7312494556052 527.2403573340381 L 689 506 L 678.0334046490063 525.0718060604538 L 694.7312494556052 527.2403573340381" stroke-miterlimit="10"/></g><g transform="translate(-126,-286) scale(1,1)"><path fill="none" stroke="#000000" d="M 895 587 L 792 506" stroke-miterlimit="10"/></g><g transform="translate(-126,-286) scale(1,1)"><path fill="#FFFFFF" stroke="none" d="M 813.1811099018151 511.94647654726964 L 792 506 L 802.7725125538899 525.1821003353722"/></g><g transform="translate(-126,-286) scale(1,1)"><path fill="none" stroke="#000000" d="M 813.1811099018151 511.94647654726964 L 792 506 L 802.7725125538899 525.1821003353722 L 813.1811099018151 511.94647654726964" stroke-miterlimit="10"/></g><g transform="translate(-126,-286) scale(1,1)"><path fill="#C0C0C0" stroke="none" d="M 1150.428955078125 314.5 C 1150.428955078125 308.1487248 1155.577679878125 303 1161.928955078125 303 C 1168.280230278125 303 1173.428955078125 308.1487248 1173.428955078125 314.5 C 1173.428955078125 320.8512752 1168.280230278125 326 1161.928955078125 326 C 1155.577679878125 326 1150.428955078125 320.8512752 1150.428955078125 314.5 Z" opacity="0.2"/></g><g transform="translate(-126,-286) scale(1,1)"><path fill="#ffffff" stroke="none" d="M 1143.428955078125 307.5 C 1143.428955078125 301.1487248 1148.577679878125 296 1154.928955078125 296 C 1161.280230278125 296 1166.428955078125 301.1487248 1166.428955078125 307.5 C 1166.428955078125 313.8512752 1161.280230278125 319 1154.928955078125 319 C 1148.577679878125 319 1143.428955078125 313.8512752 1143.428955078125 307.5 Z"/></g><g transform="translate(-126,-286) scale(1,1)"><path fill="none" stroke="#000000" d="M 1143.428955078125 307.5 C 1143.428955078125 301.1487248 1148.577679878125 296 1154.928955078125 296 C 1161.280230278125 296 1166.428955078125 301.1487248 1166.428955078125 307.5 C 1166.428955078125 313.8512752 1161.280230278125 319 1154.928955078125 319 C 1148.577679878125 319 1143.428955078125 313.8512752 1143.428955078125 307.5 Z" stroke-miterlimit="10"/></g><g transform="translate(-126,-286) scale(1,1)"><path fill="none" stroke="#000000" d="M 1048 344 L 1261.85791015625 344" stroke-miterlimit="10"/></g><g transform="translate(-126,-286) scale(1,1)"><path fill="none" stroke="#000000" d="M 1048 382 L 1261.85791015625 382" stroke-miterlimit="10"/></g><g transform="translate(-126,-286) scale(1,1)"><g><path fill="none" stroke="none"/><text fill="#000000" stroke="none" font-family="Arial" font-size="13px" font-style="normal" font-weight="bold" text-decoration="none" x="1134.692626953125" y="338.5">ISoldat</text></g></g><g transform="translate(-126,-286) scale(1,1)"><g><path fill="none" stroke="none"/><text fill="#000000" stroke="none" font-family="Arial" font-size="13px" font-style="normal" font-weight="normal" text-decoration="none" x="1053" y="361.5">+TypesH: enum</text><path fill="none" stroke="#000000" d="M 1053 361.5 L 1145.12353515625 361.5" stroke-miterlimit="10"/></g></g><g transform="translate(-126,-286) scale(1,1)"><g><path fill="none" stroke="none"/><text fill="#000000" stroke="none" font-family="Arial" font-size="13px" font-style="normal" font-weight="normal" text-decoration="none" x="1053" y="376.5">+TypesM: enum</text><path fill="none" stroke="#000000" d="M 1053 376.5 L 1146.564453125 376.5" stroke-miterlimit="10"/></g></g><g transform="translate(-126,-286) scale(1,1)"><g><path fill="none" stroke="none"/><text fill="#000000" stroke="none" font-family="Arial" font-size="13px" font-style="normal" font-weight="normal" text-decoration="none" x="1053" y="399.5">+getPoints(): int</text></g></g><g transform="translate(-126,-286) scale(1,1)"><g><path fill="none" stroke="none"/><text fill="#000000" stroke="none" font-family="Arial" font-size="13px" font-style="normal" font-weight="normal" text-decoration="none" x="1053" y="414.5">+getTour(): int</text></g></g><g transform="translate(-126,-286) scale(1,1)"><g><path fill="none" stroke="none"/><text fill="#000000" stroke="none" font-family="Arial" font-size="13px" font-style="normal" font-weight="normal" text-decoration="none" x="1053" y="429.5">+getPortee(): int</text></g></g><g transform="translate(-126,-286) scale(1,1)"><g><path fill="none" stroke="none"/><text fill="#000000" stroke="none" font-family="Arial" font-size="13px" font-style="normal" font-weight="normal" text-decoration="none" x="1053" y="444.5">+joueTour(int tour): void</text></g></g><g transform="translate(-126,-286) scale(1,1)"><g><path fill="none" stroke="none"/><text fill="#000000" stroke="none" font-family="Arial" font-size="13px" font-style="normal" font-weight="normal" text-decoration="none" x="1053" y="459.5">+combat(Soldat soldat): void</text></g></g><g transform="translate(-126,-286) scale(1,1)"><g><path fill="none" stroke="none"/><text fill="#000000" stroke="none" font-family="Arial" font-size="13px" font-style="normal" font-weight="normal" text-decoration="none" x="1053" y="474.5">+seDeplace(Position newPos): void</text></g></g><g transform="translate(-126,-286) scale(1,1)"><path fill="none" stroke="#000000" d="M 998 583 L 984 312 L 1143.428955078125 310.2602288076811" stroke-miterlimit="10"/></g></g></svg>